<mxfile host="app.diagrams.net" modified="2023-08-26T15:53:29.133Z" agent="Mozilla/5.0 (Windows NT 10.0; Win64; x64) AppleWebKit/537.36 (KHTML, like Gecko) Chrome/116.0.0.0 Safari/537.36" version="21.6.9" etag="Ytv2e2BlrujykrRe6JE2" type="github">
  <diagram name="PÃ¡gina-1" id="bh40TLzJVatX1Q5verdv">
    <mxGraphModel>
      <root>
        <mxCell id="0" />
        <mxCell id="1" parent="0" />
      </root>
    </mxGraphModel>
  </diagram>
</mxfile>
